<svg xmlns="http://www.w3.org/2000/svg" xmlns:xlink="http://www.w3.org/1999/xlink" width="1000" height="700" viewBox="0 0 1000 700">
  <defs>
    <clipPath>
      <rect width="1000" height="700"/>
    </clipPath>
  </defs>
  <g clip-path="url(#clip-Carousel_Remote_Style_-_Swithcer)">
    <rect width="1000" height="700" fill="#fcfcff"/>
    <rect width="249" height="213" rx="5" transform="translate(231 164)" fill="#d5d5d5"/>
    <rect width="249" height="213" rx="5" transform="translate(520 164)" fill="#d5d5d5"/>
    <path d="M10,0H180a0,0,0,0,1,0,0V91a0,0,0,0,1,0,0H10A10,10,0,0,1,0,81V10A10,10,0,0,1,10,0Z" transform="translate(320 445)" fill="#888"/>
    <path d="M0,0H171a10,10,0,0,1,10,10V81a10,10,0,0,1-10,10H0a0,0,0,0,1,0,0V0A0,0,0,0,1,0,0Z" transform="translate(500 445)" fill="#d5d5d5"/>
    <text transform="translate(368 505)" fill="#fff" font-size="40" font-family="Poppins-SemiBold, Poppins" font-weight="600"><tspan x="0" y="0">ABC</tspan></text>
    <text transform="translate(553 505)" fill="#fff" font-size="40" font-family="Poppins-SemiBold, Poppins" font-weight="600"><tspan x="0" y="0">XYZ</tspan></text>
  </g>
</svg>