<svg xmlns="http://www.w3.org/2000/svg" width="166.667" height="200" viewBox="0 0 166.667 200"><g transform="translate(-10)"><path d="M173.333,200h-160A3.339,3.339,0,0,1,10,196.667V3.333A3.335,3.335,0,0,1,13.333,0h160a3.339,3.339,0,0,1,3.333,3.333V196.667A3.343,3.343,0,0,1,173.333,200ZM16.667,193.333H170V6.667H16.667Z" fill="#888"/><path d="M72.289,114.167a28.333,28.333,0,1,1,28.333-28.333A28.365,28.365,0,0,1,72.289,114.167Zm0-50A21.667,21.667,0,1,0,93.956,85.833,21.692,21.692,0,0,0,72.289,64.167Z" transform="translate(22.637 38.333)" fill="#888"/><path d="M73.958,134.163a3.347,3.347,0,0,1-2.36-.973l-15.213-15.2-23.047,7.673a3.334,3.334,0,0,1-3.913-4.873l25-41.667a3.336,3.336,0,0,1,5.72,3.433L39.778,116.5l16.453-5.48a3.293,3.293,0,0,1,3.413.807l12.5,12.5L79.052,96.7a3.329,3.329,0,1,1,6.46,1.613L77.178,131.65a3.324,3.324,0,0,1-2.347,2.407,3.818,3.818,0,0,1-.873.107Z" transform="translate(12.635 51.67)" fill="#888"/><path d="M70.625,134.17a3.469,3.469,0,0,1-.893-.12,3.358,3.358,0,0,1-2.347-2.407L59.052,98.31a3.329,3.329,0,1,1,6.46-1.613l6.907,27.62,12.5-12.5a3.323,3.323,0,0,1,3.407-.807l16.453,5.48L84.412,82.55a3.336,3.336,0,1,1,5.72-3.433l25,41.667a3.336,3.336,0,0,1-3.92,4.873l-23.047-7.673-15.207,15.2a3.2,3.2,0,0,1-2.333.987Z" transform="translate(32.635 51.663)" fill="#888"/><path d="M110,26.667H43.333a3.333,3.333,0,1,1,0-6.667H110a3.333,3.333,0,1,1,0,6.667Z" transform="translate(20 13.333)" fill="#888"/><path d="M110,50.667H43.333a3.333,3.333,0,1,1,0-6.667H110a3.333,3.333,0,1,1,0,6.667Z" transform="translate(20 29.333)" fill="#888"/><path d="M140.667,38.667H27.333a3.333,3.333,0,0,1,0-6.667H140.667a3.333,3.333,0,1,1,0,6.667Z" transform="translate(9.333 21.333)" fill="#888"/></g></svg>