<svg xmlns="http://www.w3.org/2000/svg" width="200" height="117.887" viewBox="0 0 200 117.887"><g transform="translate(0 -24.632)"><path d="M0,91.364H200v6.667H0Z" transform="translate(0 44.488)" fill="#888"/><path d="M200,109.185H133.353a3.333,3.333,0,0,1-2.967-4.847l1.747-3.427c5.767-11.207,8.947-17.367,8.947-27.073,0-23.053-18-42.533-39.307-42.533S62.46,51.025,62.46,74.372c0,9.32,2.953,15.013,8.327,25.367l2.367,4.587a3.329,3.329,0,0,1-2.967,4.847H0v-6.667H64.707c-5.38-10.367-8.92-17.293-8.92-28.14,0-26.953,21.06-49.733,45.98-49.733s45.973,22.533,45.973,49.2c0,10.82-3.527,18.14-8.94,28.673H200Z" fill="#888"/></g></svg>