<svg xmlns="http://www.w3.org/2000/svg" width="200" height="166.667" viewBox="0 0 200 166.667"><g transform="translate(0 -10)"><path d="M196.667,176.667H3.333A3.339,3.339,0,0,1,0,173.333v-160A3.335,3.335,0,0,1,3.333,10H196.667A3.339,3.339,0,0,1,200,13.333v160A3.343,3.343,0,0,1,196.667,176.667ZM6.667,170H193.333V16.667H6.667Z" fill="#888"/><path d="M192,36.667H5.333a3.333,3.333,0,1,1,0-6.667H192a3.333,3.333,0,0,1,0,6.667Z" transform="translate(1.333 13.333)" fill="#888"/><path d="M120,80.667H33.333a3.333,3.333,0,0,1,0-6.667H120a3.333,3.333,0,0,1,0,6.667Z" transform="translate(20 42.667)" fill="#888"/><path d="M42.16,98.118a3.33,3.33,0,0,1-2.507-1.147L29.067,84.891a3.321,3.321,0,0,1-.033-4.347l10.587-12.5a3.332,3.332,0,1,1,5.087,4.307L35.973,82.658l8.7,9.933a3.33,3.33,0,0,1-2.513,5.527Z" transform="translate(18.827 37.909)" fill="#888"/><path d="M83.285,98.414a3.341,3.341,0,0,1-2.673-5.333l7.827-10.507L80.612,72.068a3.337,3.337,0,0,1,5.353-3.987l9.307,12.5a3.35,3.35,0,0,1,0,3.993l-9.307,12.5a3.362,3.362,0,0,1-2.68,1.34Z" transform="translate(53.301 37.826)" fill="#888"/><path d="M19.333,101.333A3.339,3.339,0,0,1,16,98V71.333a3.333,3.333,0,0,1,6.667,0V98A3.339,3.339,0,0,1,19.333,101.333Z" transform="translate(10.667 38.667)" fill="#888"/><path d="M99.333,101.333A3.343,3.343,0,0,1,96,98V71.333a3.333,3.333,0,1,1,6.667,0V98A3.343,3.343,0,0,1,99.333,101.333Z" transform="translate(64 38.667)" fill="#888"/><path d="M19.289,23.667A4.167,4.167,0,1,1,15.123,19.5,4.166,4.166,0,0,1,19.289,23.667Z" transform="translate(7.304 6.333)" fill="#888"/><path d="M29.289,23.667A4.167,4.167,0,1,1,25.123,19.5,4.166,4.166,0,0,1,29.289,23.667Z" transform="translate(13.971 6.333)" fill="#888"/><path d="M39.289,23.667A4.167,4.167,0,1,1,35.123,19.5,4.166,4.166,0,0,1,39.289,23.667Z" transform="translate(20.637 6.333)" fill="#888"/></g></svg>