<svg xmlns="http://www.w3.org/2000/svg" width="166.667" height="200" viewBox="0 0 166.667 200"><g transform="translate(-10)"><path d="M173.333,200h-160A3.339,3.339,0,0,1,10,196.667V3.333A3.335,3.335,0,0,1,13.333,0h160a3.339,3.339,0,0,1,3.333,3.333V196.667A3.343,3.343,0,0,1,173.333,200ZM16.667,193.333H170V6.667H16.667Z" fill="#888"/><path d="M123.186,90.175H36.159a3.332,3.332,0,0,1-2.98-4.84L52.613,47.328a3.342,3.342,0,0,1,4.873-1.22L76.719,59.481,95.746,26.415a3.234,3.234,0,0,1,3.1-1.667,3.377,3.377,0,0,1,2.867,2.04l24.547,58.773a3.331,3.331,0,0,1-3.073,4.613Zm-81.58-6.667h76.573L98.166,35.581,80.7,65.948a3.335,3.335,0,0,1-4.793,1.08L56.826,53.761,41.606,83.508Z" transform="translate(15.214 16.492)" fill="#888"/><path d="M47.707,40.773A11.667,11.667,0,1,1,59.373,29.107,11.679,11.679,0,0,1,47.707,40.773Zm0-16.667a5,5,0,1,0,5,5A5,5,0,0,0,47.707,24.107Z" transform="translate(17.36 11.627)" fill="#888"/><path d="M150,125.333H23.333A3.339,3.339,0,0,1,20,122V15.333A3.335,3.335,0,0,1,23.333,12H150a3.339,3.339,0,0,1,3.333,3.333V122A3.343,3.343,0,0,1,150,125.333ZM26.667,118.667h120v-100h-120Z" transform="translate(6.667 8)" fill="#888"/><path d="M58.667,98.667H25.333a3.333,3.333,0,1,1,0-6.667H58.667a3.333,3.333,0,1,1,0,6.667Z" transform="translate(8 61.333)" fill="#888"/><path d="M118.667,106.667H25.333a3.333,3.333,0,1,1,0-6.667h93.333a3.333,3.333,0,0,1,0,6.667Z" transform="translate(8 66.667)" fill="#888"/></g></svg>