<svg xmlns="http://www.w3.org/2000/svg" width="200" height="200" viewBox="0 0 200 200"><path d="M84.667,40H51.333A3.335,3.335,0,0,1,48,36.667V3.333A3.335,3.335,0,0,1,51.333,0H84.667A3.339,3.339,0,0,1,88,3.333V36.667A3.339,3.339,0,0,1,84.667,40Zm-30-6.667H81.333V6.667H54.667Z" transform="translate(32)" fill="#888"/><path d="M36.667,88H3.333A3.339,3.339,0,0,1,0,84.667V51.333A3.335,3.335,0,0,1,3.333,48H36.667A3.335,3.335,0,0,1,40,51.333V84.667A3.339,3.339,0,0,1,36.667,88Zm-30-6.667H33.333V54.667H6.667Z" transform="translate(0 32)" fill="#888"/><path d="M84.667,136H51.333A3.339,3.339,0,0,1,48,132.667V99.333A3.339,3.339,0,0,1,51.333,96H84.667A3.343,3.343,0,0,1,88,99.333v33.333A3.343,3.343,0,0,1,84.667,136Zm-30-6.667H81.333V102.667H54.667Z" transform="translate(32 64)" fill="#888"/><path d="M132.667,88H99.333A3.343,3.343,0,0,1,96,84.667V51.333A3.339,3.339,0,0,1,99.333,48h33.333A3.339,3.339,0,0,1,136,51.333V84.667A3.343,3.343,0,0,1,132.667,88Zm-30-6.667h26.667V54.667H102.667Z" transform="translate(64 32)" fill="#888"/><path d="M131.992,77.971a79.736,79.736,0,0,0-62.38-62.393l1.327-6.533a86.42,86.42,0,0,1,67.593,67.607l-6.54,1.32Z" transform="translate(46.408 6.029)" fill="#888"/><path d="M15.573,77.953,9.04,76.627A86.418,86.418,0,0,1,76.513,9.06l1.333,6.527A79.738,79.738,0,0,0,15.573,77.953Z" transform="translate(6.027 6.04)" fill="#888"/><path d="M76.623,138.483A86.427,86.427,0,0,1,9.056,71.009l6.527-1.333a79.757,79.757,0,0,0,62.36,62.273l-1.32,6.533Z" transform="translate(6.037 46.451)" fill="#888"/><path d="M71.013,138.5l-1.333-6.527a79.749,79.749,0,0,0,62.267-62.36l6.533,1.327A86.438,86.438,0,0,1,71.013,138.5Z" transform="translate(46.453 46.408)" fill="#888"/></svg>