<svg xmlns="http://www.w3.org/2000/svg" width="200" height="200" viewBox="0 0 200 200"><g transform="translate(0)"><g transform="translate(0)"><line stroke="#449fdb" stroke-width="1"/></g><path d="M84.17,86.076a27.038,27.038,0,0,1-20.036-8.959L16.219,24.726a3.09,3.09,0,0,1,4.563-4.168l47.9,52.385a21.193,21.193,0,0,0,30.984-.006L147.484,20.62a3.09,3.09,0,1,1,4.557,4.174L104.219,77.111A27.078,27.078,0,0,1,84.17,86.076Z" transform="translate(8.38 15.524)" fill="#8072fc"/><path d="M18.5,94.3a3.093,3.093,0,0,1-2.081-5.366L58.54,50.472a3.088,3.088,0,1,1,4.168,4.557L20.592,93.49A3.123,3.123,0,0,1,18.5,94.3Z" transform="translate(8.379 37.44)" fill="#8072fc"/><path d="M102.139,85.416a2.8,2.8,0,0,1-2.081-.972L74.206,56.1a4.241,4.241,0,0,1-.191-5.238,2.727,2.727,0,0,1,4.353-.237l25.853,28.34a4.243,4.243,0,0,1,.2,5.245,2.868,2.868,0,0,1-2.278,1.2Z" transform="matrix(0.998, -0.07, 0.07, 0.998, 36.301, 43.797)" fill="#8072fc"/><path d="M117.242,146.856a41.678,41.678,0,1,1,41.678-41.678,3.087,3.087,0,0,1-6.175,0A35.5,35.5,0,1,0,141.928,130.7a3.092,3.092,0,0,1,4.3,4.439,41.43,41.43,0,0,1-28.99,11.719Z" transform="translate(41.08 53.144)" fill="#8072fc"/><path d="M109.088,115.547a18.524,18.524,0,1,1,18.524-18.524A18.554,18.554,0,0,1,109.088,115.547Zm0-30.873a12.349,12.349,0,1,0,12.349,12.349A12.358,12.358,0,0,0,109.088,84.675Z" transform="translate(49.234 61.298)" fill="#8072fc"/><path d="M117.323,144.515h-98.1C8.57,144.515,0,132.69,0,122.9V22.567C0,12.064,9.157,2.5,19.228,2.5H165.873c9.947,0,19.37,9.756,19.37,20.067v84.9a3.087,3.087,0,1,1-6.175,0v-84.9c0-7.014-6.545-13.893-13.2-13.893H19.228c-6.588,0-13.053,6.878-13.053,13.893V122.9c0,6.743,6.323,15.436,13.053,15.436h98.1a3.087,3.087,0,1,1,0,6.175Z" transform="translate(0 1.359)" fill="#8072fc"/><path d="M125.121,106.252a14.67,14.67,0,0,1-14.665-14.665,3.087,3.087,0,1,1,6.175,0,8.49,8.49,0,0,0,16.98,0,3.087,3.087,0,1,1,6.175,0,14.678,14.678,0,0,1-14.665,14.665Z" transform="translate(60.048 66.734)" fill="#8072fc"/></g></svg>