<svg xmlns="http://www.w3.org/2000/svg" width="200" height="200" viewBox="0 0 200 200"><g transform="translate(0 0)"><g transform="translate(0 0)"><line transform="translate(0 0)" stroke="#449fdb" stroke-width="1"/></g><path d="M196.667,200H3.333A3.286,3.286,0,0,1,0,196.78V3.227A3.283,3.283,0,0,1,3.333,0H196.667A3.287,3.287,0,0,1,200,3.227V196.78A3.291,3.291,0,0,1,196.667,200Zm-190-6.453H193.333V6.453H6.667Z" transform="translate(0 0)" fill="#8072fc"/><path d="M192,64.517H5.333a3.228,3.228,0,1,1,0-6.453H192a3.228,3.228,0,1,1,0,6.453Z" transform="translate(1.333 38.709)" fill="#8072fc"/><path d="M192,25.809H5.333a3.228,3.228,0,1,1,0-6.453H192a3.228,3.228,0,1,1,0,6.453Z" transform="translate(1.333 12.904)" fill="#8072fc"/><path d="M59.333,195.489A3.288,3.288,0,0,1,56,192.263V5.163a3.335,3.335,0,0,1,6.667,0V192.256A3.289,3.289,0,0,1,59.333,195.489Z" transform="translate(37.333 1.291)" fill="#8072fc"/><path d="M192,83.867H5.333a3.225,3.225,0,1,1,0-6.447H192a3.225,3.225,0,1,1,0,6.447Z" transform="translate(1.333 51.613)" fill="#8072fc"/><rect width="27" height="8" rx="4" transform="translate(17 16)" fill="#8072fc"/><rect width="27" height="8" rx="4" transform="translate(17 113)" fill="#8072fc"/><rect width="27" height="8" rx="4" transform="translate(110 113)" fill="#8072fc"/><rect width="27" height="8" rx="4" transform="translate(110 16)" fill="#8072fc"/></g></svg>