<svg xmlns="http://www.w3.org/2000/svg" width="200" height="200" viewBox="0 0 200 200"><path d="M171.667,200H28.333A28.365,28.365,0,0,1,0,171.667V28.333A28.365,28.365,0,0,1,28.333,0H171.667A28.365,28.365,0,0,1,200,28.333V171.667A28.365,28.365,0,0,1,171.667,200ZM28.333,6.667A21.692,21.692,0,0,0,6.667,28.333V171.667a21.692,21.692,0,0,0,21.667,21.667H171.667a21.692,21.692,0,0,0,21.667-21.667V28.333A21.692,21.692,0,0,0,171.667,6.667Z" fill="#888"/><path d="M80.623,128.333a49.167,49.167,0,1,1,49.167-49.167A49.227,49.227,0,0,1,80.623,128.333Zm0-91.667a42.5,42.5,0,1,0,42.5,42.5A42.545,42.545,0,0,0,80.623,36.667Z" transform="translate(20.971 20)" fill="#888"/><path d="M71.457,96.252A26.25,26.25,0,1,1,97.711,70,26.291,26.291,0,0,1,71.457,96.252Zm0-45.84a19.583,19.583,0,1,0,19.587,19.58A19.6,19.6,0,0,0,71.457,50.412Z" transform="translate(30.136 29.168)" fill="#888"/><path d="M4,36H70.667v6.667H4Z" transform="translate(2.667 24)" fill="#888"/><path d="M76,36h66.667v6.667H83.22Z" transform="translate(50.667 24)" fill="#888"/><path d="M46,66.667H19.333A3.335,3.335,0,0,1,16,63.333v-60A3.335,3.335,0,0,1,19.333,0H46a3.335,3.335,0,0,1,3.333,3.333v60A3.335,3.335,0,0,1,46,66.667ZM22.667,60h20V6.667h-20Z" transform="translate(10.667)" fill="#888"/><path d="M111.333,38.667h-20A3.339,3.339,0,0,1,88,35.333v-20A3.339,3.339,0,0,1,91.333,12h20a3.339,3.339,0,0,1,3.333,3.333v20A3.339,3.339,0,0,1,111.333,38.667ZM94.667,32H108V18.667H94.667Z" transform="translate(58.667 8)" fill="#888"/></svg>