<svg xmlns="http://www.w3.org/2000/svg" width="191.248" height="200" viewBox="0 0 191.248 200"><g transform="translate(-3.008 -0.4)"><path d="M72.421,93.854A24.329,24.329,0,1,1,96.75,69.525,24.359,24.359,0,0,1,72.421,93.854Zm0-41.953A17.617,17.617,0,1,0,90.038,69.518,17.637,17.637,0,0,0,72.421,51.9Z" transform="translate(30.56 30.365)" fill="#888"/><path d="M84.6,85.091l-4.678-4.812s25.43-24.732,33.805-33.114c5.02-5.007,5.8-15.544,1.859-25.047C111.692,12.722,104.3,7.1,95.807,7.1c-20.423,0-31.463,11.154-31.463,21.651V80.588H57.632V28.762C57.632,12.595,74.041.4,95.807.4c11.309,0,21.013,7.161,25.98,19.154,5.013,12.094,3.644,25.409-3.315,32.362C110.082,60.313,84.6,85.091,84.6,85.091Z" transform="translate(37.027)" fill="#888"/><path d="M67.446,83.02a3.355,3.355,0,0,1-2.8-1.5C64.48,81.275,47.956,56.537,39.9,48.476c-6.329-6.329-9.906-15.49-9.107-23.336a20.549,20.549,0,0,1,9.638-15.4,25.178,25.178,0,0,1,26.483-.98c9.4,5.06,15.7,15.128,15.7,25.04a3.356,3.356,0,0,1-6.711,0c0-7.517-4.893-15.208-12.181-19.134a18.517,18.517,0,0,0-19.6.685,13.88,13.88,0,0,0-6.651,10.47c-.685,6.732,3.114,13.846,7.174,17.913,8.53,8.523,24.893,33.034,25.591,34.074a3.347,3.347,0,0,1-2.785,5.208Z" transform="translate(18.756 3.44)" fill="#888"/><path d="M45.451,86.59c-14.832,0-24.55-4.154-30.732-8.671C6.632,72,3.008,64.261,3.008,59.221c0-14.114,9.732-29.181,37.054-29.181,24.5,0,47.812,29.658,48.792,30.919a3.355,3.355,0,1,1-5.3,4.121C83.337,64.8,61.27,36.751,40.075,36.751c-18.993,0-30.342,8.4-30.342,22.47,0,2.6,2.43,8.5,8.96,13.282,8.966,6.564,26.812,12.121,60.9,1.3a3.356,3.356,0,1,1,2.034,6.4c-14.55,4.611-26.456,6.4-36.175,6.4Z" transform="translate(0 20.092)" fill="#888"/><path d="M76.91,87.119a3.354,3.354,0,0,1-.248-6.7c.289-.02,29.1-2.3,47.02-8.168,16.04-5.221,16.04-12.658,16.04-21.268,0-6.866-5.436-10.557-9.993-12.443C119.065,34.119,104.474,35.79,100,40.253a3.355,3.355,0,0,1-4.745-4.745c6.852-6.852,24.5-8.356,37.04-3.168,9.114,3.779,14.134,10.4,14.134,18.644,0,8.826,0,20.919-20.664,27.651-18.7,6.121-47.389,8.389-48.591,8.49C77.085,87.119,77,87.119,76.91,87.119Z" transform="translate(47.823 19.55)" fill="#888"/><path d="M125.216,120.46C106.269,120.46,72.5,85.393,68.7,81.4a3.357,3.357,0,0,1,4.879-4.611c9.752,10.275,38.027,36.966,51.638,36.966,13.812,0,18.423-20.711,18.423-26.268v-.7c.02-7.839.067-20.96-21.913-24.275a3.356,3.356,0,1,1,.993-6.638c27.7,4.181,27.644,22.933,27.624,30.94v.678c0,8.43-6.181,32.966-25.128,32.966Z" transform="translate(43.906 37.578)" fill="#888"/><path d="M85.942,134.467a21.312,21.312,0,0,1-21.671-20.349C63.224,101.534,60.6,73.245,60.6,73.245l6.685-.617s2.624,28.336,3.671,40.933a15.308,15.308,0,0,0,6.933,12.027c4.483,2.765,10.443,2.886,16.792.342,5.376-2.148,9.027-5.859,10.55-10.725,1.919-6.074.463-13.685-3.879-20.329a3.351,3.351,0,0,1,5.611-3.664c5.45,8.309,7.195,18.047,4.678,26.034-2.161,6.852-7.161,12.013-14.47,14.933a30.451,30.451,0,0,1-11.228,2.289Z" transform="translate(39.039 48.96)" fill="#888"/><path d="M56.811,155.207a22.893,22.893,0,0,1-15.6-5.738c-20.691-18.691-10.148-38.148-4.651-45.644,7.859-10.732,28.658-34.591,29.537-35.6a3.358,3.358,0,1,1,5.06,4.416c-.215.248-21.5,24.658-29.188,35.154-6.7,9.148-11.5,22.94,3.738,36.691,6.872,6.2,16.933,4.289,24.067.423,8.973-4.879,17.805-15.315,15.987-26.752a3.354,3.354,0,1,1,6.624-1.06c2.349,14.745-8.06,27.55-19.416,33.711a34.218,34.218,0,0,1-16.154,4.4Z" transform="translate(17.58 45.193)" fill="#888"/><path d="M40.189,114.4a34.729,34.729,0,0,1-25.866-11.651c-6.47-7.55-8.3-17.906-4.651-26.362,2.5-5.779,9.866-15.638,31.154-16.651a3.382,3.382,0,0,1,3.51,3.195,3.345,3.345,0,0,1-3.195,3.5c-13.081.631-22.074,5.1-25.309,12.611-2.6,6.02-1.161,13.805,3.584,19.336a27.582,27.582,0,0,0,21.383,9.3,23.1,23.1,0,0,0,18.04-9.034,3.355,3.355,0,0,1,5.3,4.114,29.727,29.727,0,0,1-23.188,11.624c-.248.013-.51.02-.765.02Z" transform="translate(3.262 40.218)" fill="#888"/><path d="M20.992,109.176a3.361,3.361,0,0,1-3.356-3.356V65.552a3.356,3.356,0,1,1,6.711,0V105.82A3.361,3.361,0,0,1,20.992,109.176Z" transform="translate(9.916 41.889)" fill="#888"/><path d="M28.992,109.176a3.361,3.361,0,0,1-3.356-3.356V65.552a3.356,3.356,0,1,1,6.711,0V105.82A3.361,3.361,0,0,1,28.992,109.176Z" transform="translate(15.338 41.889)" fill="#888"/><path d="M33.636,60.192h6.711v46.98H33.636Z" transform="translate(20.761 40.53)" fill="#888"/><path d="M41.636,60.192h6.711V93.749H41.636Z" transform="translate(26.184 40.53)" fill="#888"/></g></svg>