<svg xmlns="http://www.w3.org/2000/svg" width="200" height="135.599" viewBox="0 0 200 135.599"><g transform="translate(82.5 129.184)"><path d="M100.5,162.415c-11.26,0-22.036-4.128-31.293-11.959a52.766,52.766,0,0,1-13.391,1.761C25.313,152.217.5,126.329.5,94.511c0-31.8,24.806-57.679,55.312-57.679A53.321,53.321,0,0,1,69.2,38.574c18.514-15.677,44.066-15.677,62.6,0a53.36,53.36,0,0,1,13.384-1.741c30.5,0,55.319,25.875,55.319,57.679s-24.813,57.706-55.319,57.706a52.844,52.844,0,0,1-13.391-1.761c-9.264,7.832-20.04,11.959-31.293,11.959ZM70.884,142.967l1.4,1.264c16.611,14.991,39.777,14.991,56.4,0l1.392-1.264,1.815.538a46.78,46.78,0,0,0,13.277,1.983c26.8,0,48.6-22.87,48.6-50.983s-21.794-50.963-48.6-50.963a46.787,46.787,0,0,0-13.277,1.97l-1.815.538-1.4-1.264c-16.625-15.011-39.777-15-56.395,0l-1.4,1.264-1.815-.538a46.911,46.911,0,0,0-13.277-1.963C29,43.548,7.2,66.4,7.2,94.511s21.8,50.983,48.59,50.983a46.745,46.745,0,0,0,13.277-1.983l1.822-.545Z" transform="translate(-83 -156)" fill="#888"/></g></svg>