<svg xmlns="http://www.w3.org/2000/svg" width="200" height="130.62" viewBox="0 0 200 130.62"><g transform="translate(-3 -22.772)"><path d="M25.652,144.62a3.513,3.513,0,0,1-2.484-5.993c3.474-3.481,9.719-11.979,13.964-21.178C15.982,108.1,3,91.724,3,74.132c0-28.322,33.051-51.36,73.682-51.36s73.682,23.038,73.682,51.36S117.3,125.47,76.682,125.47c-2.575,0-5.109-.119-7.607-.3C57.026,138.08,42.423,144.62,25.652,144.62ZM76.689,29.782c-36.757,0-66.664,19.887-66.664,44.342,0,15.557,12.652,30.2,33.023,38.2A3.51,3.51,0,0,1,45.02,116.9,96.774,96.774,0,0,1,33.638,137c11.915-1.81,22.448-7.775,31.388-17.8a3.482,3.482,0,0,1,2.919-1.165c2.87.246,5.775.421,8.744.421,36.75,0,66.664-19.887,66.664-44.328S113.438,29.782,76.689,29.782Z" transform="translate(0 0)" fill="#8072fc"/><path d="M144.81,145.864c-15.522,0-29.045-6.028-40.209-17.957-2.274.161-4.575.274-6.919.274-16.063,0-31.648-3.937-43.893-11.073a3.516,3.516,0,0,1,3.537-6.077c11.193,6.54,25.522,10.126,40.356,10.126,2.737,0,5.41-.161,8.042-.4a3.523,3.523,0,0,1,2.933,1.151c8.049,9.031,17.515,14.484,28.2,16.266a88.8,88.8,0,0,1-10.161-18.119,3.548,3.548,0,0,1,.035-2.695,3.476,3.476,0,0,1,1.937-1.874c18.708-7.347,30.322-20.778,30.322-35.037,0-22.434-27.494-40.679-61.3-40.679a3.509,3.509,0,0,1,0-7.017c37.669,0,68.313,21.4,68.313,47.7,0,16.294-11.943,31.437-31.43,40.153,3.909,8.365,9.565,16.07,12.729,19.234a3.545,3.545,0,0,1-2.491,6.028Z" transform="translate(36.997 7.528)" fill="#8072fc"/></g></svg>