<svg xmlns="http://www.w3.org/2000/svg" width="200" height="199.992" viewBox="0 0 200 199.992"><g transform="translate(-3.2 -3.203)"><path d="M75.194,203.195a3.537,3.537,0,0,1-2.493-1.028L4.228,133.7A3.513,3.513,0,0,1,3.2,131.214a3.559,3.559,0,0,1,1.028-2.493L128.716,4.233A3.386,3.386,0,0,1,131.357,3.2l40.466,1.613a29.887,29.887,0,0,1,29.768,29.916L203.2,75.058a3.48,3.48,0,0,1-1.028,2.627L77.68,202.174a3.531,3.531,0,0,1-2.486,1.021ZM11.7,131.221l63.494,63.487L196.1,73.8l-1.542-38.923A22.942,22.942,0,0,0,171.675,11.86L132.6,10.311,11.7,131.221Z" transform="translate(0 0)" fill="#8072fc"/><path d="M104.479,54.819A21.127,21.127,0,0,1,89.542,18.748c7.986-7.979,21.9-7.972,29.874,0a21.127,21.127,0,0,1-14.937,36.071Zm0-35.212a14.085,14.085,0,0,0-9.958,24.05,14.434,14.434,0,0,0,19.916,0,14.085,14.085,0,0,0-9.958-24.05Z" transform="translate(60.971 7.274)" fill="#8072fc"/></g></svg>