<svg xmlns="http://www.w3.org/2000/svg" width="199.993" height="200" viewBox="0 0 199.993 200"><g transform="translate(0 0)"><g transform="translate(0 0)"><line transform="translate(0 0)" stroke="#449fdb" stroke-width="1"/></g><path d="M162.668,200H37.319A37.36,37.36,0,0,1,0,162.675V37.319A37.359,37.359,0,0,1,37.319,0H162.668a37.365,37.365,0,0,1,37.325,37.319V162.681A37.365,37.365,0,0,1,162.668,200ZM37.332,6.673A30.7,30.7,0,0,0,6.666,37.325V162.688A30.691,30.691,0,0,0,37.325,193.34H162.675a30.7,30.7,0,0,0,30.666-30.652V37.325A30.693,30.693,0,0,0,162.675,6.673H37.332Z" transform="translate(0 0)" fill="#8072fc"/><path d="M141.336,152H49.319A37.36,37.36,0,0,1,12,114.677V49.319A37.359,37.359,0,0,1,49.319,12h92.017a37.365,37.365,0,0,1,37.325,37.319v65.364A37.365,37.365,0,0,1,141.336,152Zm-92-133.329A30.7,30.7,0,0,0,18.666,49.325V114.69a30.691,30.691,0,0,0,30.659,30.652h92.017a30.7,30.7,0,0,0,30.666-30.652V49.325a30.693,30.693,0,0,0-30.666-30.652H49.332Z" transform="translate(7.999 7.999)" fill="#8072fc"/><path d="M134.844,106.511H31.161a3.337,3.337,0,0,1-2.433-5.613l36.1-38.625a3.342,3.342,0,0,1,4.293-.5L88.392,74.626l19.046-32.732a3.328,3.328,0,0,1,5.953.407l24.553,59.6a3.344,3.344,0,0,1-3.1,4.607ZM38.827,99.845h91.037L109.785,51.086,92.339,81.052a3.306,3.306,0,0,1-2.12,1.573,3.372,3.372,0,0,1-2.607-.467L67.759,68.906,38.827,99.845Z" transform="translate(18.551 26.824)" fill="#8072fc"/><path d="M42.706,45.777A11.666,11.666,0,1,1,54.373,34.11,11.679,11.679,0,0,1,42.706,45.777Zm0-16.666a5,5,0,1,0,5,5A5,5,0,0,0,42.706,29.11Z" transform="translate(20.692 14.961)" fill="#8072fc"/></g></svg>