<svg xmlns="http://www.w3.org/2000/svg" width="200" height="117.241" viewBox="0 0 200 117.241"><g transform="translate(-2 -26)"><path d="M198.552,32.9H5.448a3.448,3.448,0,1,1,0-6.9h193.1a3.448,3.448,0,0,1,0,6.9Z" fill="#8072fc"/><path d="M198.552,48.9H5.448a3.448,3.448,0,1,1,0-6.9h193.1a3.448,3.448,0,0,1,0,6.9Z" transform="translate(0 11.586)" fill="#8072fc"/><path d="M198.552,64.9H5.448a3.448,3.448,0,0,1,0-6.9h193.1a3.448,3.448,0,0,1,0,6.9Z" transform="translate(0 23.172)" fill="#8072fc"/><path d="M198.552,80.9H5.448a3.448,3.448,0,1,1,0-6.9h193.1a3.448,3.448,0,0,1,0,6.9Z" transform="translate(0 34.759)" fill="#8072fc"/><path d="M108.9,96.9H5.448a3.448,3.448,0,0,1,0-6.9H108.9a3.448,3.448,0,0,1,0,6.9Z" transform="translate(0 46.345)" fill="#8072fc"/></g></svg>