<svg xmlns="http://www.w3.org/2000/svg" width="182.654" height="200" viewBox="0 0 182.654 200"><g transform="translate(-6 -0.872)"><path d="M81.326,140.831c-24.51,0-44.434-27.3-45.976-51.179C30.093,88.224,26,83.509,26,78.253V61.339c0-4.824,4.249-8.531,6.765-10.3V35.97c0-16.142,11.278-28.373,26.351-28.745C62.187,5.953,75.251.872,88.578.872c20.722,0,32.135,12.468,32.135,35.1V49.588c11.271.643,13.53,4.722,13.53,11.751V78.253c0,5.527-3.241,9.945-7.942,11.359C124.874,113.932,105.728,140.831,81.326,140.831ZM88.578,7.637c-13.517,0-27.257,6-27.386,6.055a3.263,3.263,0,0,1-1.367.291c-11.758,0-20.3,9.248-20.3,21.987V52.883a3.4,3.4,0,0,1-1.725,2.95c-2.118,1.2-5.04,3.775-5.04,5.507V78.253c0,2.6,2.855,5.074,5.879,5.074a3.388,3.388,0,0,1,3.383,3.383c0,21.446,17.535,47.356,39.306,47.356,21.216,0,38.3-25.911,38.3-47.356a3.384,3.384,0,0,1,3.383-3.383c3.065,0,4.465-2.632,4.465-5.074V61.339c0-3.592,0-5.074-10.148-5.074a3.38,3.38,0,0,1-3.383-3.383V35.97c-.007-19.064-8.314-28.333-25.376-28.333Z" transform="translate(13.826 0)" fill="#8072fc"/><path d="M9.383,148.012A3.388,3.388,0,0,1,6,144.629v-9.3c0-23.82,16.094-38.054,43.054-38.054H59.966L72.773,78.79a3.382,3.382,0,0,1,5.561,3.849L64.519,102.583a3.383,3.383,0,0,1-2.781,1.455H49.054c-23.063,0-36.289,11.406-36.289,31.289v9.3a3.388,3.388,0,0,1-3.383,3.383Z" transform="translate(0 52.86)" fill="#8072fc"/><path d="M141.364,148.539a3.388,3.388,0,0,1-3.383-3.383v-9.3c0-23.069-20.214-31.289-39.137-31.289H86.16a3.4,3.4,0,0,1-2.868-1.583L70.039,81.746a3.38,3.38,0,0,1,5.73-3.586L88.041,97.793H98.852c27.879,0,45.888,14.938,45.888,38.054v9.3a3.38,3.38,0,0,1-3.376,3.389Z" transform="translate(43.914 52.333)" fill="#8072fc"/><path d="M57.254,130.562a3.2,3.2,0,0,1-.562-.047,3.368,3.368,0,0,1-2.483-1.854L37.3,93.989a3.383,3.383,0,0,1,4.614-4.479l33.826,17.759a3.373,3.373,0,0,1,.812,5.385L59.635,129.568a3.337,3.337,0,0,1-2.381.994ZM47.9,100.294l10.31,21.141,10.31-10.31Z" transform="translate(21.398 61.008)" fill="#8072fc"/><path d="M77.252,130.559a3.418,3.418,0,0,1-2.4-.988L57.938,112.658a3.381,3.381,0,0,1,.846-5.405L93.32,89.5a3.383,3.383,0,0,1,4.56,4.539L80.263,128.712a3.4,3.4,0,0,1-2.476,1.813,4.93,4.93,0,0,1-.534.034ZM66.009,111.15l10.33,10.33L87.109,100.3Z" transform="translate(35.218 61.011)" fill="#8072fc"/></g></svg>