<svg xmlns="http://www.w3.org/2000/svg" width="200" height="186.879" viewBox="0 0 200 186.879"><g transform="translate(-4 -7.672)"><path d="M122.027,170.815a3.594,3.594,0,0,1-3.393-2.443L69.941,22.286,21.248,168.372a3.57,3.57,0,1,1-6.771-2.264L66.562,9.858c.971-2.914,5.807-2.914,6.771,0L125.42,166.115a3.573,3.573,0,0,1-2.257,4.521A3.96,3.96,0,0,1,122.027,170.815Z" transform="translate(8.088 0)" fill="#8072fc"/><path d="M95.429,75.467H27.757a3.576,3.576,0,1,1,0-7.143H95.429a3.576,3.576,0,1,1,0,7.143Z" transform="translate(15.714 47.655)" fill="#8072fc"/><path d="M128.218,134.8a3.577,3.577,0,0,1-3.571-3.571v-55.7c.007-10.1.021-18.814-3.9-22.743-1.907-1.907-4.914-2.829-9.214-2.829-6.157,0-9.107,2.35-14.236,6.843a3.576,3.576,0,0,1-4.721-5.371c5.05-4.429,9.814-8.621,18.95-8.621,6.293,0,10.957,1.614,14.271,4.921,6.014,6.014,6,16.107,5.986,27.8v55.693A3.568,3.568,0,0,1,128.218,134.8Z" transform="translate(68.639 27.607)" fill="#8072fc"/><path d="M109.07,125.02c-8.129,0-25.05,0-25.05-22.171,0-17.45,19.471-42.829,49.964-42.829a3.577,3.577,0,0,1,3.571,3.571v57.671a3.582,3.582,0,0,1-3.571,3.571H119.32c-1.636,0-3.307.043-4.986.093-1.757.057-3.521.093-5.264.093Zm21.343-57.714c-24.079,1.814-39.25,21.679-39.25,35.557,0,12.7,6.036,15.021,17.907,15.021,1.679,0,3.393-.043,5.093-.086,1.736-.05,3.464-.1,5.179-.1h11.093l-.021-50.393Z" transform="translate(62.873 41.131)" fill="#8072fc"/><path d="M200.429,115.467H7.571a3.571,3.571,0,1,1,0-7.143H200.429a3.571,3.571,0,0,1,0,7.143Z" transform="translate(0 79.084)" fill="#8072fc"/></g></svg>