<svg xmlns="http://www.w3.org/2000/svg" width="200" height="160" viewBox="0 0 200 160"><g transform="translate(0 -12)"><path d="M196.667,172H3.333A3.339,3.339,0,0,1,0,168.667V15.333A3.335,3.335,0,0,1,3.333,12H196.667A3.339,3.339,0,0,1,200,15.333V168.667A3.343,3.343,0,0,1,196.667,172Zm-190-6.667H193.333V18.667H6.667Z" fill="#8072fc"/><path d="M192,38.667H5.333a3.333,3.333,0,1,1,0-6.667H192a3.333,3.333,0,0,1,0,6.667Z" transform="translate(1.333 13.333)" fill="#8072fc"/><path d="M109.289,23.667a4.167,4.167,0,1,1-4.167-4.167A4.166,4.166,0,0,1,109.289,23.667Z" transform="translate(67.304 5)" fill="#8072fc"/><path d="M99.289,23.667A4.167,4.167,0,1,1,95.123,19.5,4.166,4.166,0,0,1,99.289,23.667Z" transform="translate(60.637 5)" fill="#8072fc"/><path d="M89.289,23.667A4.167,4.167,0,1,1,85.123,19.5,4.166,4.166,0,0,1,89.289,23.667Z" transform="translate(53.971 5)" fill="#8072fc"/></g></svg>