<svg xmlns="http://www.w3.org/2000/svg" width="200" height="113.107" viewBox="0 0 200 113.107"><g transform="translate(0 -26.068)"><path d="M47.253,139.175a366.486,366.486,0,0,1-44.327-2.687A3.314,3.314,0,0,1,0,133.181V33.175a3.338,3.338,0,0,1,3.733-3.313,359.806,359.806,0,0,0,43.593,2.647c20.16,0,38.227-1.667,55.693-3.28,16.833-1.547,34.24-3.16,52.92-3.16a311.994,311.994,0,0,1,41.167,2.693A3.331,3.331,0,0,1,200,32.068V132.075a3.325,3.325,0,0,1-1.133,2.5,3.251,3.251,0,0,1-2.633.793,305.957,305.957,0,0,0-40.327-2.64c-18.38,0-34.86,1.527-52.32,3.133-17.627,1.633-35.853,3.313-56.333,3.313ZM6.66,130.221a362.892,362.892,0,0,0,40.6,2.293c20.167,0,38.233-1.667,55.713-3.273,16.833-1.553,34.247-3.173,52.927-3.173a310.559,310.559,0,0,1,37.42,2.22v-93.3a304.929,304.929,0,0,0-37.393-2.267c-18.373,0-34.853,1.527-52.307,3.133C86,37.481,67.78,39.161,47.313,39.161A365.405,365.405,0,0,1,6.653,36.9l.007,93.32Z" transform="translate(0 0)" fill="#888"/><path d="M40.16,87.018c-8.627,0-17.047-.34-25.747-1.04a3.338,3.338,0,0,1,.54-6.653c8.513.693,16.76,1.027,25.207,1.027a3.333,3.333,0,1,1,0,6.667Z" transform="translate(7.566 35.497)" fill="#888"/><path d="M119.888,43.755c-.1,0-.18,0-.273-.007-8.46-.693-16.707-1.013-25.233-1.013a3.333,3.333,0,0,1,0-6.667c8.707,0,17.12.34,25.767,1.033a3.332,3.332,0,0,1-.26,6.653Z" transform="translate(60.699 6.667)" fill="#888"/><path d="M63.7,87.211c-7.687,0-12.853-4.54-12.853-11.273a3.333,3.333,0,0,1,6.667,0c0,4.16,4.327,4.607,6.187,4.607s6.2-.447,6.2-4.607c0-2.513-.527-3.007-6.147-5.78L60.7,68.644c-5.507-2.713-9.853-4.86-9.853-11.747,0-6.68,5.287-11.353,12.853-11.353,7.613,0,12.727,4.56,12.727,11.353a3.333,3.333,0,1,1-6.667,0c0-4.233-4.24-4.687-6.06-4.687-1.453,0-6.187.34-6.187,4.687,0,2.507.52,2.993,6.133,5.76l3.053,1.52c5.513,2.713,9.867,4.86,9.867,11.753C76.551,82.671,71.377,87.211,63.7,87.211Z" transform="translate(33.896 12.984)" fill="#888"/><path d="M59.329,53.9A3.335,3.335,0,0,1,56,50.568V43.9a3.333,3.333,0,0,1,6.667,0v6.667A3.343,3.343,0,0,1,59.329,53.9Z" transform="translate(37.331 9.667)" fill="#888"/><path d="M59.329,81.9A3.335,3.335,0,0,1,56,78.568V71.9a3.333,3.333,0,0,1,6.667,0v6.667A3.339,3.339,0,0,1,59.329,81.9Z" transform="translate(37.331 28.333)" fill="#888"/></g></svg>